<mxfile host="app.diagrams.net" modified="2021-07-04T06:02:02.772Z" agent="5.0 (Windows NT 10.0; Win64; x64) AppleWebKit/537.36 (KHTML, like Gecko) Chrome/91.0.4472.124 Safari/537.36" etag="kqTb8V_1VGq5B5oqfGk4" version="14.8.2" type="github">
  <diagram id="ugdf-8wClFi1usD2ORvL" name="Page-1">
    <mxGraphModel dx="782" dy="436" grid="1" gridSize="10" guides="1" tooltips="1" connect="1" arrows="1" fold="1" page="1" pageScale="1" pageWidth="850" pageHeight="1100" math="0" shadow="0">
      <root>
        <mxCell id="0" />
        <mxCell id="1" parent="0" />
        <mxCell id="SlMkbRb0abEWhEXNu_CT-1" value="کاربر" style="shape=umlLifeline;participant=umlActor;perimeter=lifelinePerimeter;whiteSpace=wrap;html=1;container=1;collapsible=0;recursiveResize=0;verticalAlign=top;spacingTop=36;labelBackgroundColor=#ffffff;outlineConnect=0;size=40;fontFamily=B Zar;fontStyle=1;fontSize=13;" parent="1" vertex="1">
          <mxGeometry x="20" y="20" width="20" height="350" as="geometry" />
        </mxCell>
        <mxCell id="SlMkbRb0abEWhEXNu_CT-2" value="&lt;font style=&quot;font-size: 13px&quot;&gt;&lt;font style=&quot;font-size: 13px&quot;&gt;&lt;b style=&quot;font-size: 13px&quot;&gt;صفحه نمایش&lt;br style=&quot;font-size: 13px&quot;&gt;&lt;/b&gt;&lt;/font&gt;&lt;/font&gt;" style="shape=umlLifeline;perimeter=lifelinePerimeter;whiteSpace=wrap;html=1;container=1;collapsible=0;recursiveResize=0;outlineConnect=0;fontFamily=B Zar;fontSize=13;verticalAlign=middle;fillColor=#BFBFBF;" parent="1" vertex="1">
          <mxGeometry x="280" y="20" width="100" height="340" as="geometry" />
        </mxCell>
        <mxCell id="SlMkbRb0abEWhEXNu_CT-3" value="" style="html=1;points=[];perimeter=orthogonalPerimeter;fillColor=#5EBEA0;" parent="SlMkbRb0abEWhEXNu_CT-2" vertex="1">
          <mxGeometry x="45" y="80" width="10" height="80" as="geometry" />
        </mxCell>
        <mxCell id="SlMkbRb0abEWhEXNu_CT-13" value="&lt;font style=&quot;font-size: 13px;&quot;&gt;درخواست مشاهده ی فعالیت های کاربر&lt;/font&gt;" style="html=1;verticalAlign=bottom;startArrow=oval;endArrow=block;startSize=8;strokeColor=#28408E;fontFamily=B Zar;fontSize=13;" parent="1" target="SlMkbRb0abEWhEXNu_CT-3" edge="1">
          <mxGeometry relative="1" as="geometry">
            <mxPoint x="43" y="110" as="sourcePoint" />
            <Array as="points">
              <mxPoint x="90" y="110" />
            </Array>
          </mxGeometry>
        </mxCell>
        <mxCell id="SlMkbRb0abEWhEXNu_CT-14" value="جستجو در پایگاه داده" style="edgeStyle=orthogonalEdgeStyle;html=1;align=left;spacingLeft=2;endArrow=block;rounded=0;strokeColor=#28408E;fontFamily=B Zar;fontSize=13;entryX=-0.033;entryY=0.189;entryDx=0;entryDy=0;entryPerimeter=0;exitX=0.967;exitY=0.267;exitDx=0;exitDy=0;exitPerimeter=0;" parent="1" target="fMqmUE3b3NMQiMcMnuWo-2" edge="1" source="SlMkbRb0abEWhEXNu_CT-3">
          <mxGeometry x="-0.1765" y="11" relative="1" as="geometry">
            <mxPoint x="340" y="121" as="sourcePoint" />
            <Array as="points" />
            <mxPoint x="617.5" y="130" as="targetPoint" />
            <mxPoint x="1" as="offset" />
          </mxGeometry>
        </mxCell>
        <mxCell id="SlMkbRb0abEWhEXNu_CT-15" value="" style="html=1;points=[];perimeter=orthogonalPerimeter;fillColor=#5EBEA0;" parent="1" vertex="1">
          <mxGeometry x="30" y="100" width="10" height="140" as="geometry" />
        </mxCell>
        <mxCell id="fMqmUE3b3NMQiMcMnuWo-1" value="&lt;font style=&quot;font-size: 13px&quot;&gt;تاریخچه&lt;/font&gt;" style="shape=umlLifeline;perimeter=lifelinePerimeter;whiteSpace=wrap;html=1;container=1;collapsible=0;recursiveResize=0;outlineConnect=0;gradientDirection=south;fillColor=#BFBFBF;fontStyle=1;fontFamily=B Zar;" vertex="1" parent="1">
          <mxGeometry x="570" y="20" width="100" height="640" as="geometry" />
        </mxCell>
        <mxCell id="fMqmUE3b3NMQiMcMnuWo-2" value="" style="html=1;points=[];perimeter=orthogonalPerimeter;fillColor=#5EBEA0;" vertex="1" parent="fMqmUE3b3NMQiMcMnuWo-1">
          <mxGeometry x="45" y="90" width="10" height="60" as="geometry" />
        </mxCell>
        <mxCell id="fMqmUE3b3NMQiMcMnuWo-3" value="&lt;font style=&quot;font-size: 13px&quot;&gt;برگرداندن پاسخ جستجو&lt;/font&gt;" style="html=1;verticalAlign=bottom;endArrow=open;dashed=1;endSize=8;exitX=0;exitY=0.95;strokeColor=#28408e;fontFamily=B Zar;fontSize=13;fontStyle=0;entryX=1.1;entryY=0.758;entryDx=0;entryDy=0;entryPerimeter=0;" edge="1" parent="1" target="SlMkbRb0abEWhEXNu_CT-3">
          <mxGeometry x="-0.1971" relative="1" as="geometry">
            <mxPoint x="340" y="160" as="targetPoint" />
            <mxPoint x="610" y="160" as="sourcePoint" />
            <mxPoint as="offset" />
          </mxGeometry>
        </mxCell>
      </root>
    </mxGraphModel>
  </diagram>
</mxfile>
